<?xml version="1.0" encoding="UTF-8" standalone="no"?>
<!-- Created with Inkscape (http://www.inkscape.org/) -->

<svg
   width="210mm"
   height="297mm"
   viewBox="0 0 210 297"
   version="1.1"
   id="svg5"
   xml:space="preserve"
   inkscape:version="1.2.2 (732a01da63, 2022-12-09)"
   sodipodi:docname="logo.svg"
   xmlns:inkscape="http://www.inkscape.org/namespaces/inkscape"
   xmlns:sodipodi="http://sodipodi.sourceforge.net/DTD/sodipodi-0.dtd"
   xmlns="http://www.w3.org/2000/svg"
   xmlns:svg="http://www.w3.org/2000/svg"><sodipodi:namedview
     id="namedview7"
     pagecolor="#353535"
     bordercolor="#eeeeee"
     borderopacity="1"
     inkscape:showpageshadow="0"
     inkscape:pageopacity="0"
     inkscape:pagecheckerboard="0"
     inkscape:deskcolor="#505050"
     inkscape:document-units="mm"
     showgrid="false"
     showguides="true"
     inkscape:zoom="0.70710678"
     inkscape:cx="116.67262"
     inkscape:cy="468.10469"
     inkscape:window-width="1920"
     inkscape:window-height="1009"
     inkscape:window-x="-8"
     inkscape:window-y="-8"
     inkscape:window-maximized="1"
     inkscape:current-layer="layer1"><sodipodi:guide
       position="-1.4748134,277.62269"
       orientation="1,0"
       id="guide5368"
       inkscape:locked="false" /><sodipodi:guide
       position="216.84502,279.47373"
       orientation="1,0"
       id="guide5370"
       inkscape:locked="false" /></sodipodi:namedview><defs
     id="defs2"><clipPath
       clipPathUnits="userSpaceOnUse"
       id="clipPath6761"><rect
         style="fill:none;fill-opacity:1;stroke:#000000;stroke-width:0.268512;stroke-linecap:butt;stroke-dasharray:none;paint-order:stroke markers fill"
         id="rect6763"
         width="24.419018"
         height="19.033987"
         x="102.61965"
         y="74.989906" /></clipPath><clipPath
       clipPathUnits="userSpaceOnUse"
       id="clipPath6761-6"><rect
         style="fill:none;fill-opacity:1;stroke:#000000;stroke-width:0.268512;stroke-linecap:butt;stroke-dasharray:none;paint-order:stroke markers fill"
         id="rect6763-5"
         width="24.419018"
         height="19.033987"
         x="102.61965"
         y="74.989906" /></clipPath><clipPath
       clipPathUnits="userSpaceOnUse"
       id="clipPath6761-6-3"><rect
         style="fill:none;fill-opacity:1;stroke:#000000;stroke-width:0.268512;stroke-linecap:butt;stroke-dasharray:none;paint-order:stroke markers fill"
         id="rect6763-5-6"
         width="24.419018"
         height="19.033987"
         x="102.61965"
         y="74.989906" /></clipPath><clipPath
       clipPathUnits="userSpaceOnUse"
       id="clipPath7408"><ellipse
         style="fill:none;fill-opacity:1;stroke:#1a1a1a;stroke-width:0.247513;stroke-linecap:butt;stroke-dasharray:none;paint-order:stroke markers fill"
         id="ellipse7410"
         cx="49.235729"
         cy="123.9684"
         rx="24.876242"
         ry="24.876244" /></clipPath><clipPath
       clipPathUnits="userSpaceOnUse"
       id="clipPath7412"><ellipse
         style="fill:none;fill-opacity:1;stroke:#1a1a1a;stroke-width:0.247513;stroke-linecap:butt;stroke-dasharray:none;paint-order:stroke markers fill"
         id="ellipse7414"
         cx="106.60004"
         cy="123.9684"
         rx="24.876242"
         ry="24.876244" /></clipPath><clipPath
       clipPathUnits="userSpaceOnUse"
       id="clipPath7416"><ellipse
         style="fill:none;fill-opacity:1;stroke:#1a1a1a;stroke-width:0.247513;stroke-linecap:butt;stroke-dasharray:none;paint-order:stroke markers fill"
         id="ellipse7418"
         cx="163.25"
         cy="123.9684"
         rx="24.876242"
         ry="24.876244" /></clipPath><clipPath
       clipPathUnits="userSpaceOnUse"
       id="clipPath7514"><ellipse
         style="fill:none;fill-opacity:1;stroke:#1a1a1a;stroke-width:0.247513;stroke-linecap:butt;stroke-dasharray:none;paint-order:stroke markers fill"
         id="ellipse7516"
         cx="163.25"
         cy="123.96841"
         rx="24.876242"
         ry="24.876244" /></clipPath><clipPath
       clipPathUnits="userSpaceOnUse"
       id="clipPath7609"><ellipse
         style="fill:none;fill-opacity:1;stroke:#1a1a1a;stroke-width:0.247513;stroke-linecap:butt;stroke-dasharray:none;paint-order:stroke markers fill"
         id="ellipse7611"
         cx="106.60004"
         cy="123.96841"
         rx="24.876242"
         ry="24.876244" /></clipPath></defs><g
     inkscape:label="Layer 1"
     inkscape:groupmode="layer"
     id="layer1"><rect
       style="fill:#e7bf5e;fill-opacity:1;stroke:none;stroke-width:0.2;stroke-linecap:round;paint-order:fill markers stroke"
       id="rect781"
       width="49.799999"
       height="49.799999"
       x="29.716146"
       y="80.810593"
       inkscape:export-filename="..\..\..\..\Desktop\logo.png"
       inkscape:export-xdpi="300"
       inkscape:export-ydpi="300" /><path
       style="fill:#a91200;fill-opacity:1;stroke-width:1"
       d="m 53.744594,111.72783 c -0.05637,-0.0913 -0.36864,-0.11269 -0.693869,-0.0476 -0.335569,0.0671 -0.591324,0.0331 -0.591324,-0.0787 0,-0.10833 -0.224653,-0.15402 -0.499225,-0.10152 -0.284443,0.0543 -0.499224,0.002 -0.499224,-0.12127 0,-0.11919 -0.125701,-0.16847 -0.279333,-0.10951 -0.153642,0.0589 -0.338663,0.0111 -0.41117,-0.10611 -0.07253,-0.11732 -0.30624,-0.2133 -0.519422,-0.2133 -0.320995,0 -0.387592,-0.14147 -0.387592,-0.82339 0,-0.69498 0.278556,-1.67433 1.498111,-5.26714 0.07457,-0.21966 -0.149572,0.0498 -0.49807,0.59907 -2.332239,3.67502 -2.86271,4.19098 -4.175325,4.06103 -1.817418,-0.17993 -1.735608,-2.56336 0.08798,-2.56336 0.534574,0 0.738322,0.11461 0.961721,0.54099 l 0.28345,0.54098 0.421592,-0.69075 c 0.680074,-1.11425 0.919867,-2.00368 0.595174,-2.20759 -0.150116,-0.0943 -0.441404,-0.11891 -0.647318,-0.0547 -0.205913,0.0642 -0.440982,0.009 -0.522379,-0.12281 -0.113555,-0.18373 -0.2486,-0.17708 -0.580235,0.0286 -0.363152,0.22519 -0.459605,0.22403 -0.603503,-0.008 -0.109693,-0.17624 -0.269041,-0.21267 -0.443208,-0.1013 -0.418289,0.26749 -5.386129,0.25168 -5.489412,-0.0174 -0.04855,-0.12651 -0.376145,-0.18951 -0.755338,-0.14523 -0.368284,0.043 -0.730453,-0.0203 -0.804822,-0.14062 -0.07437,-0.12034 -0.348434,-0.2188 -0.609033,-0.2188 -0.633766,0 -2.933344,-1.21711 -3.039258,-1.6086 -0.04622,-0.17086 -0.359103,-0.41446 -0.695293,-0.54136 -0.474967,-0.17929 -0.587516,-0.32152 -0.50478,-0.63789 0.06632,-0.25363 0.0098,-0.40717 -0.149912,-0.40717 -0.141014,0 -0.368254,-0.13479 -0.504979,-0.29954 -0.198508,-0.23919 -0.197701,-0.36085 0.004,-0.60389 0.138929,-0.1674 0.217327,-0.324649 0.174218,-0.349455 -0.04311,-0.02482 -0.258099,-0.144753 -0.477757,-0.26654 -0.219659,-0.121808 -0.399379,-0.391386 -0.399379,-0.59907 0,-0.207695 -0.16278,-0.540396 -0.361733,-0.739352 -0.198954,-0.198955 -0.331889,-0.513472 -0.295412,-0.698917 0.0609,-0.309617 0.637314,-0.334113 7.051323,-0.299754 3.841751,0.02065 8.349195,0.09713 10.016542,0.170148 l 3.031536,0.13273 -0.665356,0.665349 c -1.82211,1.822101 -1.300537,5.167581 0.992335,6.365071 1.072292,0.56 2.721809,0.56 3.794094,0 2.220313,-1.15959 2.805554,-4.4448 1.114338,-6.255254 -0.44133,-0.472449 -0.495497,-0.619416 -0.261402,-0.70924 0.419163,-0.160852 14.462376,-0.542835 17.216556,-0.468309 1.964157,0.05317 2.303318,0.110576 2.358624,0.399259 0.03555,0.185445 -0.09819,0.499962 -0.297145,0.698917 -0.198954,0.198956 -0.361734,0.531657 -0.361734,0.739352 0,0.207684 -0.179717,0.477262 -0.399381,0.59907 -0.219658,0.121787 -0.43465,0.241744 -0.477753,0.26654 -0.0431,0.02482 0.03532,0.182055 0.174215,0.349455 0.201709,0.24304 0.202517,0.3647 0.0037,0.60389 -0.136726,0.16475 -0.363969,0.29954 -0.504983,0.29954 -0.159709,0 -0.216237,0.15354 -0.149905,0.40717 0.08273,0.31637 -0.02981,0.4586 -0.504787,0.63789 -0.336186,0.1269 -0.649068,0.3705 -0.695288,0.54136 -0.115345,0.42633 -2.431139,1.6086 -3.150896,1.6086 -0.321991,0 -0.585445,0.0997 -0.585445,0.22154 0,0.13526 -0.26999,0.19001 -0.69319,0.14062 -0.398762,-0.0465 -0.729607,0.0139 -0.778928,0.14249 -0.10328,0.26915 -5.071121,0.28496 -5.489408,0.0174 -0.17417,-0.11139 -0.333516,-0.075 -0.443208,0.1013 -0.143898,0.23121 -0.240352,0.23235 -0.603505,0.006 -0.331638,-0.20564 -0.466681,-0.21228 -0.580231,-0.0286 -0.08139,0.1317 -0.316474,0.18696 -0.522387,0.1228 -0.205914,-0.0642 -0.497201,-0.0396 -0.64731,0.0548 -0.324693,0.20392 -0.0849,1.09335 0.595166,2.20759 l 0.421593,0.69076 0.283454,-0.54099 c 0.223393,-0.42636 0.427148,-0.54097 0.961724,-0.54097 1.823588,0 1.905401,2.38343 0.08798,2.56336 -1.313021,0.12999 -1.736228,-0.27005 -3.979342,-3.76149 -0.458643,-0.7139 -0.771931,-1.11827 -0.696195,-0.89861 1.638439,4.75187 1.882994,6.09052 1.112656,6.09052 -0.213174,0 -0.446915,0.096 -0.519422,0.2133 -0.07253,0.11733 -0.257529,0.16507 -0.411163,0.10612 -0.15364,-0.0589 -0.279341,-0.01 -0.279341,0.10951 0,0.12347 -0.214773,0.17564 -0.499216,0.12127 -0.274579,-0.0524 -0.499225,-0.006 -0.499225,0.10152 0,0.11177 -0.255762,0.14581 -0.591324,0.0787 -0.325229,-0.065 -0.637469,-0.0436 -0.693869,0.0476 -0.05637,0.0912 -0.466522,0.16592 -0.91139,0.16592 -0.444862,0 -0.854983,-0.0747 -0.911384,-0.16592 z m -0.801011,-7.37158 c -0.447585,-0.22155 -1.002223,-0.65769 -1.232528,-0.96919 -0.557083,-0.7535 -0.904636,-2.10623 -0.741946,-2.88777 0.171135,-0.822128 0.995452,-2.250277 1.38515,-2.399822 0.243929,-0.0936 0.306097,-0.507204 0.311176,-2.070212 0.0045,-1.400208 0.08936,-2.062978 0.299537,-2.340856 0.402008,-0.531504 0.367486,-0.859857 -0.106201,-1.0102 -0.50496,-0.160267 -0.506341,-0.578546 -0.0045,-1.390396 0.34184,-0.553097 0.362293,-0.724858 0.152524,-1.280612 -0.291047,-0.771056 -0.129399,-0.920787 1.211063,-1.121803 1.065092,-0.159715 1.226083,0.0083 1.241835,1.296697 0.006,0.494228 0.132048,1.57255 0.280013,2.396271 0.147965,0.823713 0.193536,1.57883 0.101258,1.678024 -0.09227,0.0992 -0.08074,0.342961 0.02566,0.541703 0.266503,0.497971 0.720436,0.299818 1.713239,-0.747896 0.806204,-0.850793 1.269707,-1.091349 1.269707,-0.658978 0,0.117579 -0.373924,0.657234 -0.830944,1.199232 -0.92216,1.093629 -0.916719,1.599678 0.0067,0.611276 0.659462,-0.705952 0.941036,-0.76224 1.578687,-0.315608 0.494838,0.346586 0.615211,1.43475 0.204184,1.845786 -0.336828,0.33682 -1.459778,0.298535 -1.757263,-0.0599 -0.383849,-0.462489 -0.656812,-0.35708 -0.517066,0.199704 0.115867,0.461655 0.07245,0.499224 -0.577422,0.499224 -0.856469,0 -0.892055,0.201415 -0.116538,0.65953 0.346852,0.204881 0.809924,0.803577 1.134172,1.466327 0.510983,1.044399 0.532923,1.191949 0.324775,2.184289 -0.122771,0.58531 -0.425585,1.33793 -0.672925,1.67247 -0.975256,1.31911 -3.116541,1.77768 -4.68211,1.00273 z m 3.113334,-0.56568 c 1.634808,-0.86873 2.120583,-2.96171 1.050502,-4.526198 -0.696126,-1.017755 -0.771252,-0.689375 -0.369221,1.613878 0.334866,1.91853 0.291069,2.07873 -0.709863,2.59633 -0.80006,0.41373 -2.151157,0.35792 -2.93724,-0.12134 l -0.666284,-0.40621 0.13278,-1.7397 c 0.07306,-0.95684 0.176735,-1.89695 0.230442,-2.089156 0.164056,-0.587057 -0.271387,-0.389385 -0.711727,0.323107 -0.578342,0.935779 -0.563036,2.447199 0.03366,3.321319 0.895691,1.31221 2.584441,1.75204 3.946972,1.02797 z m 3.553334,-7.853993 c 0.07736,-0.669618 -0.60611,-1.139232 -1.082548,-0.743824 -0.227673,0.188954 -0.239243,0.281056 -0.04997,0.398018 0.189544,0.117144 0.192116,0.217355 0.01117,0.435383 -0.307485,0.370495 -0.0794,0.57896 0.55278,0.505225 0.382536,-0.04461 0.521859,-0.190345 0.568584,-0.594802 z"
       id="path383" /><text
       xml:space="preserve"
       style="font-style:normal;font-weight:normal;font-size:8.45243px;line-height:1.25;font-family:sans-serif;fill:#a91200;fill-opacity:1;stroke:none;stroke-width:0.264583"
       x="35.417942"
       y="125.43382"
       id="text14941"><tspan
         sodipodi:role="line"
         id="tspan14939"
         style="font-style:normal;font-variant:normal;font-weight:normal;font-stretch:normal;font-size:8.45243px;font-family:Elephant;-inkscape-font-specification:'Elephant, Normal';font-variant-ligatures:normal;font-variant-caps:normal;font-variant-numeric:normal;font-variant-east-asian:normal;fill:#a91200;fill-opacity:1;stroke-width:0.264583"
         x="35.417942"
         y="125.43382">babilonia</tspan></text></g></svg>
